<?xml version="1.0" standalone="no"?><!DOCTYPE svg PUBLIC "-//W3C//DTD SVG 1.1//EN" "http://www.w3.org/Graphics/SVG/1.1/DTD/svg11.dtd"><svg t="1689834007774" class="icon" viewBox="0 0 1024 1024" version="1.1" xmlns="http://www.w3.org/2000/svg" p-id="10907" xmlns:xlink="http://www.w3.org/1999/xlink" width="200" height="200"><path d="M894.44 118.63H129.56C93.35 118.63 64 147.98 64 184.2v677.46c0 24.14 19.57 43.71 43.7 43.71h808.6c24.14 0 43.7-19.56 43.7-43.7V184.2c0-36.22-29.35-65.57-65.56-65.57zM353.56 839.8H107.7V664.98h245.85V839.8z m284.09 0H397.26V664.98h240.39V839.8z m0-437.07h-0.16v43.71h0.16v174.83H107.7V227.9H637.65v174.83zM916.3 839.8H681.36V664.98H916.3V839.8z m0-218.53H681.36V446.44H916.3v174.83z m0-218.54H681.36V227.9H916.3v174.83z" p-id="10908"></path></svg>