<?xml version="1.0" standalone="no"?><!DOCTYPE svg PUBLIC "-//W3C//DTD SVG 1.1//EN" "http://www.w3.org/Graphics/SVG/1.1/DTD/svg11.dtd"><svg t="1689833987443" class="icon" viewBox="0 0 1024 1024" version="1.1" xmlns="http://www.w3.org/2000/svg" p-id="10615" xmlns:xlink="http://www.w3.org/1999/xlink" width="200" height="200"><path d="M894.44 118.63H129.56C93.35 118.63 64 147.99 64 184.2v677.47c0 24.14 19.57 43.71 43.71 43.71H916.3c24.14 0 43.7-19.57 43.7-43.7V184.2c0-36.21-29.35-65.57-65.56-65.57zM916.3 227.9v174.83H681.36V227.9H916.3zM397.26 621.27V446.44h240.39v174.83H397.26z m240.39 43.71V839.8H397.26V664.98h240.39z m-284.09-43.71H107.7V446.44h245.85v174.83z m43.7-218.54V227.9h240.39v174.83H397.26z m284.1 43.71H916.3v174.83H681.36V446.44zM353.56 227.9v174.83H107.7V227.9h245.86zM107.7 839.8V664.98h245.85V839.8H107.7z m573.66 0V664.98H916.3V839.8H681.36z" p-id="10616"></path></svg>