<?xml version="1.0" standalone="no"?><!DOCTYPE svg PUBLIC "-//W3C//DTD SVG 1.1//EN" "http://www.w3.org/Graphics/SVG/1.1/DTD/svg11.dtd"><svg t="1689834066685" class="icon" viewBox="0 0 1024 1024" version="1.1" xmlns="http://www.w3.org/2000/svg" p-id="11053" xmlns:xlink="http://www.w3.org/1999/xlink" width="200" height="200"><path d="M894.44 118.63H129.56C93.35 118.63 64 147.98 64 184.2v655.6c0 36.21 29.35 65.56 65.56 65.56h764.88c36.21 0 65.56-29.36 65.56-65.56V184.2c0-36.22-29.36-65.57-65.56-65.57zM277.07 839.8H107.71V719.6h169.37v120.2z m0-163.9H107.71V555.7h169.37v120.2z m0-163.9H107.71V391.8h169.37V512z m0-163.9H107.71V227.9h169.37v120.2z m213.08 491.7H320.78V719.6h169.37v120.2z m0-163.9H320.78V555.7h169.37v120.2z m0-163.9H320.78V391.8h169.37V512z m0-163.9H320.78V227.9h169.37v120.2z m213.07 491.7H533.85V719.6h169.37v120.2z m0-163.9H533.85V555.7h169.37v120.2z m0-163.9H533.85V391.8h169.37V512z m0-163.9H533.85V227.9h169.37v120.2z m213.07 491.7H746.93V719.6H916.3v120.2z m0-163.9H746.93V555.7H916.3v120.2z m0-163.9H746.93V391.8H916.3V512z m0-163.9H746.93V227.9H916.3v120.2z" p-id="11054"></path></svg>