<?xml version="1.0" standalone="no"?><!DOCTYPE svg PUBLIC "-//W3C//DTD SVG 1.1//EN" "http://www.w3.org/Graphics/SVG/1.1/DTD/svg11.dtd"><svg t="1690527918951" class="icon" viewBox="0 0 1024 1024" version="1.1" xmlns="http://www.w3.org/2000/svg" p-id="6272" xmlns:xlink="http://www.w3.org/1999/xlink" width="200" height="200"><path d="M1024.2 480L861.9 710c-9.3 13.2-21.5 23.7-35.4 30.9-13.9 7.2-29.5 11.1-45.7 11.1-18.7 0-37-5.3-52.8-15.2L98.4 341.5C87.8 334.8 79.2 325.6 73.3 315c-5.9-10.7-9.1-22.8-9.1-35.3 0-15.3 4.8-30.3 13.8-42.8l117.6-163c9.3-12.9 21.4-23.1 35.1-30.1 13.7-7 29.1-10.8 45-10.8 18.4 0 36.4 5.1 52.1 14.8L1024.2 480zM754.1 768c-11.1 0-22-1.5-32.6-4.5-10.6-3-20.7-7.4-30.2-13.2l-611.8-373c-6.7-4.1-15.3 0.7-15.3 8.6v22.6c0 14.6 7.6 28.2 20 35.8l182.5 112.3C241.2 572 224.2 600 224.2 632c0 20.2 6.8 38.8 18.3 53.7a62.518 62.518 0 0 1-44.2 18.3H64.2v-46.8c0-29-19.5-54.4-47.6-61.9L0.2 591l-0.2 369 28.8-14.3c21.7-10.8 35.5-33 35.5-57.3V768h135.5c25.9 0 50.8-10.3 69.2-28.7l3.1-3.1c10.6-10.6 25-16.3 40-16.3h0.2c46.4 0 84.4-35.9 87.8-81.4L674.2 807.2c9.2 5.7 19.9 8.7 30.7 8.7 9.8 0 19.3-2.5 27.7-6.9 8.4-4.5 15.7-11 21.1-19.2l6.8-10.1c3.2-5-0.4-11.7-6.4-11.7zM312.2 656c-13.2 0-24-10.8-24-24s10.8-24 24-24 24 10.8 24 24-10.8 24-24 24z" p-id="6273"></path></svg>