<?xml version="1.0" standalone="no"?><!DOCTYPE svg PUBLIC "-//W3C//DTD SVG 1.1//EN" "http://www.w3.org/Graphics/SVG/1.1/DTD/svg11.dtd"><svg t="1686724144323" class="icon" viewBox="0 0 1024 1024" version="1.1" xmlns="http://www.w3.org/2000/svg" p-id="867" xmlns:xlink="http://www.w3.org/1999/xlink" width="200" height="200"><path d="M362.66666666 106.66666666L234.66666666 106.66666666C164.26666666 106.66666666 106.66666666 164.26666666 106.66666666 234.66666666l0 128c0 70.4 57.6 128 128 128l128 0c70.4 0 128-57.6 128-128L490.66666666 234.66666666C490.66666666 164.26666666 433.06666666 106.66666666 362.66666666 106.66666666zM810.66666666 106.66666666l-128 0C612.26666666 106.66666666 554.66666666 164.26666666 554.66666666 234.66666666l0 128c0 70.4 57.6 128 128 128l128 0c70.4 0 128-57.6 128-128L938.66666666 234.66666666C938.66666666 164.26666666 881.06666666 106.66666666 810.66666666 106.66666666zM362.66666666 554.66666666L234.66666666 554.66666666c-70.4 0-128 57.6-128 128l0 128c0 70.4 57.6 128 128 128l128 0c70.4 0 128-57.6 128-128l0-128C490.66666666 612.26666666 433.06666666 554.66666666 362.66666666 554.66666666zM810.66666666 554.66666666l-128 0c-70.4 0-128 57.6-128 128l0 128c0 70.4 57.6 128 128 128l128 0c70.4 0 128-57.6 128-128l0-128C938.66666666 612.26666666 881.06666666 554.66666666 810.66666666 554.66666666z" p-id="868"></path></svg>