<?xml version="1.0" standalone="no"?><!DOCTYPE svg PUBLIC "-//W3C//DTD SVG 1.1//EN" "http://www.w3.org/Graphics/SVG/1.1/DTD/svg11.dtd"><svg t="1683947702162" class="icon" viewBox="0 0 1329 1024" version="1.1" xmlns="http://www.w3.org/2000/svg" p-id="5054" xmlns:xlink="http://www.w3.org/1999/xlink" width="259.5703125" height="200"><path d="M680.605228 465.356515C771.090897 408.680708 901.052419 392.403974 1031.013943 431.436833 1213.507935 486.308208 1335.275692 631.458373 1328.139065 773.299795 1325.103032 811.283138 1273.180738 814.901212 1215.789133 806.457195 1105.256741 790.029478 1042.859481 754.758313 949.33778 700.339889 880.861035 660.552115 808.595276 621.662872 710.511179 607.794505 668.60761 601.919048 645.532271 635.227432 689.110572 649.697889 819.224175 692.809139 883.13667 751.593187 973.477678 796.206905 1032.840757 825.451628 1093.420475 842.332296 1158.701687 851.372879 1191.955248 855.896853 1235.220117 854.688987 1263.154594 860.269845 1289.271531 865.392228 1301.87005 876.546579 1279.861126 903.828519 1198.785863 1009.793002 1027.977911 1053.955609 857.027152 1002.558694 705.961765 957.037236 596.64601 849.568444 567.49304 733.504653 540.623125 625.88488 584.496313 525.49205 680.605228 465.356515L680.605228 465.356515ZM582.678772 475.604967C497.502916 433.248632 383.175946 425.863342 270.223258 463.544716 100.17756 520.220523-10.050673 660.40113 0.730307 793.647552 4.67882 829.371669 53.717159 831.177944 107.312333 821.682569 210.854613 802.990105 268.550379 768.020903 354.942874 714.206413 400.939617 685.57483 448.768736 657.386989 506.761244 637.937764 513.897868 577.198299 540.318964 521.428389 582.678772 475.604967L582.678772 475.604967ZM506.305002 700.490871C441.02379 735.611054 394.41131 773.594397 335.048231 805.098347 279.939678 834.341229 223.610778 851.82767 162.270659 862.227105 131.148069 867.505993 90.309059 867.505993 64.192125 873.534279 39.749921 879.107769 28.360623 889.960155 49.768647 914.98287 129.176595 1012.354195 291.175042 1048.986051 450.434197 995.775494 509.949357 975.882525 562.183229 945.882887 604.390956 909.409377 561.879068 863.133004 529.691919 808.419978 514.35411 746.616262 510.405596 731.094445 507.673722 715.718089 506.305002 700.490871L506.305002 700.490871ZM867.654197 356.074084C855.808659 290.961627 826.358947 224.035527 779.292083 163.741643 669.215929 23.108088 499.47439-33.862321 376.495561 20.095787 343.857736 35.623128 358.283068 82.194105 385.152985 129.225396 437.075279 220.117327 489.301731 262.624643 569.015695 325.930825 601.499584 351.701092 634.144826 378.53745 664.514435 411.391042 726.151295 376.119877 796.447434 358.786258 867.654197 356.074084L867.654197 356.074084ZM575.694225 416.671774C541.383522 390.137386 508.283896 366.626343 475.942812 337.230635 429.938652 295.327251 394.715471 248.152344 364.65744 194.188711 349.321482 166.755787 335.808631 128.470478 321.537232 106.01632 308.178313 85.064629 294.211075 77.828478 277.359884 106.167302 226.950972 187.103545 225.582252 301.211916 273.107212 409.133659 370.881586 380.643851 480.499646 379.285 575.694225 416.671774L575.694225 416.671774Z"  p-id="5055"></path></svg>