<?xml version="1.0" standalone="no"?><!DOCTYPE svg PUBLIC "-//W3C//DTD SVG 1.1//EN" "http://www.w3.org/Graphics/SVG/1.1/DTD/svg11.dtd"><svg t="1691825799816" class="icon" viewBox="0 0 1024 1024" version="1.1" xmlns="http://www.w3.org/2000/svg" p-id="11352" id="mx_n_1691825799817" xmlns:xlink="http://www.w3.org/1999/xlink" width="200" height="200"><path d="M576 480V256h-128v224h128z m64 0h96a32 32 0 0 0 32-32V288a32 32 0 0 0-32-32h-96v224z m-256 0V256H256v224h128z m-128 64v256a32 32 0 0 1-64 0V224a32 32 0 0 1 32-32h512a96 96 0 0 1 96 96v160a96 96 0 0 1-96 96H256z"  p-id="11353"></path></svg>