<?xml version="1.0" standalone="no"?><!DOCTYPE svg PUBLIC "-//W3C//DTD SVG 1.1//EN" "http://www.w3.org/Graphics/SVG/1.1/DTD/svg11.dtd"><svg t="1691825964767" class="icon" viewBox="0 0 1024 1024" version="1.1" xmlns="http://www.w3.org/2000/svg" p-id="11887" xmlns:xlink="http://www.w3.org/1999/xlink" width="200" height="200"><path d="M606.4 320.736v295.488l102.24-122.656c-25.312-58.784-65.376-120.704-102.24-172.832z m-64-0.992a1308.16 1308.16 0 0 0-78.528 125.216l78.528 83.264V319.744z m64 444.224a168.704 168.704 0 0 0 128-167.456 176.64 176.64 0 0 0-2.88-30.72l-125.12 150.144v48.032z m-29.024 68.576a32 32 0 0 1-34.976-31.872V706.56a32 32 0 0 1 0-3.68v-81.248l-140.16-148.608a31.968 31.968 0 0 1-8.512-24.896 32 32 0 0 1 3.392-14.464 1536 1536 0 0 1 150.4-227.84 34.24 34.24 0 0 1 26.24-13.76 32 32 0 0 1 26.24 11.52c70.4 92.8 198.4 261.44 198.4 391.04a233.28 233.28 0 0 1-221.024 237.952zM318.4 384.672a32 32 0 0 1-22.72-9.28l-64-64a32 32 0 0 1 45.12-45.12l64 64a32 32 0 0 1-22.4 54.4z m128 288a32 32 0 0 1-22.72-9.28l-192-192a32 32 0 0 1 45.12-45.12l192 192a32 32 0 0 1-22.4 54.4z m0 160a32 32 0 0 1-22.72-9.28l-192-192a32 32 0 0 1 45.12-45.12l192 192a32 32 0 0 1-22.4 54.4z"  p-id="11888"></path></svg>
