<?xml version="1.0" standalone="no"?><!DOCTYPE svg PUBLIC "-//W3C//DTD SVG 1.1//EN" "http://www.w3.org/Graphics/SVG/1.1/DTD/svg11.dtd"><svg t="1691657344487" class="icon" viewBox="0 0 1024 1024" version="1.1" xmlns="http://www.w3.org/2000/svg" p-id="13979" xmlns:xlink="http://www.w3.org/1999/xlink" width="200" height="200"><path d="M909.625 547.969c-13.609 0-24.643-11.055-24.643-24.705h-0.396c-7.649-199.94-169.166-360.24-369.227-365.367v-0.285c-13.61 0-24.644-11.065-24.644-24.705 0-13.64 11.035-24.705 24.644-24.705 1.591 0 3.131 0.182 4.63 0.467 223.277 7.467 403.145 185.915 413.582 408.992 0.426 1.802 0.698 3.668 0.698 5.603 0.002 13.65-11.033 24.705-24.644 24.705z m-182.347-9.88c0 122.807-99.285 222.356-221.778 222.356-122.483 0-221.778-99.55-221.778-222.356 0-122.804 99.295-222.355 221.778-222.355 122.49 0 221.778 99.55 221.778 222.355zM280.893 352.578l-59.248-59.392c-11.543-11.582-11.543-30.35 0-41.933 11.553-11.571 30.277-11.571 41.82 0l59.238 59.402c11.553 11.571 11.553 30.35 0 41.92-11.54 11.586-30.265 11.586-41.81 0.003zM247 535.85c0 16.376-13.244 29.651-29.569 29.651h-83.782c-16.337 0-29.579-13.275-29.579-29.651 0-16.376 13.245-29.65 29.58-29.65h83.781c16.325-0.003 29.569 13.272 29.569 29.65z m33.894 183.27c11.543-11.582 30.27-11.582 41.81 0 11.553 11.57 11.553 30.349 0 41.922l-59.238 59.4c-11.543 11.573-30.267 11.573-41.82 0-11.543-11.581-11.543-30.35 0-41.93l59.248-59.393zM505.5 795.03c16.334 0 29.579 13.275 29.579 29.65v83.995c0 16.376-13.245 29.651-29.58 29.651-16.324 0-29.568-13.275-29.568-29.65V824.68c0-16.375 13.244-29.65 29.569-29.65z m224.616-75.91l59.238 59.392c11.553 11.582 11.553 30.35 0 41.931-11.542 11.573-30.269 11.573-41.82 0l-59.238-59.4c-11.553-11.573-11.553-30.35 0-41.923 11.55-11.581 30.267-11.581 41.82 0z m51.376-203.274c0-0.842 0.17-1.642 0.242-2.462h-1.399c-12.038-136.374-122.714-244.314-260.05-251.58v-0.67c-13.794-1.265-24.646-12.767-24.646-26.933 0-15.008 12.14-27.179 27.117-27.179 2.513 0 4.913 0.467 7.236 1.104 156.256 12.78 284.897 146.063 305.71 300.313 0.244 1.783 0.427 3.405 0.578 4.945h-0.831c0.082 0.82 0.254 1.622 0.254 2.462 0 15.018-12.14 27.18-27.108 27.18-14.964-0.003-27.103-12.162-27.103-27.18z" p-id="13980"></path></svg>