<?xml version="1.0" standalone="no"?><!DOCTYPE svg PUBLIC "-//W3C//DTD SVG 1.1//EN" "http://www.w3.org/Graphics/SVG/1.1/DTD/svg11.dtd"><svg t="1683376862346" class="icon" viewBox="0 0 1024 1024" version="1.1" xmlns="http://www.w3.org/2000/svg" p-id="9421" xmlns:xlink="http://www.w3.org/1999/xlink" width="200" height="200"><path d="M586.6496 440.9856h270.0288c25.856 0 45.9776-22.528 43.0592-48.2304l-15.616-136.9088c-7.0656-62.0032-59.4432-108.6976-121.856-108.6976h-175.6672c-23.9104 0-43.3152 19.4048-43.3152 43.3152v207.2064c0.0512 23.9104 19.456 43.3152 43.3664 43.3152zM483.8912 397.6192V190.4128c0-23.9104-19.4048-43.3152-43.3152-43.3152H264.9088c-62.3616 0-114.7392 46.7456-121.856 108.6976L127.4368 392.704c-2.9184 25.7024 17.152 48.2304 43.0592 48.2304h270.08c23.9104 0.0512 43.3152-19.3536 43.3152-43.3152zM440.5248 500.4288h-286.72a43.3664 43.3664 0 0 0-43.0592 38.4l-22.6304 198.0928a122.76224 122.76224 0 0 0 30.3616 95.5392c23.2448 26.0608 56.576 40.96 91.4944 40.96h230.5536c23.9104 0 43.3152-19.4048 43.3152-43.3152V543.744c0.0512-23.9104-19.3536-43.3152-43.3152-43.3152zM873.3696 500.4288h-286.72c-23.9104 0-43.3152 19.4048-43.3152 43.3152v286.3616c0 23.9104 19.4048 43.3152 43.3152 43.3152h230.5536a122.70592 122.70592 0 0 0 121.856-136.5504l-22.6304-198.0928c-2.4576-21.8112-20.992-38.3488-43.0592-38.3488z" p-id="9422"></path></svg>