<?xml version="1.0" standalone="no"?><!DOCTYPE svg PUBLIC "-//W3C//DTD SVG 1.1//EN" "http://www.w3.org/Graphics/SVG/1.1/DTD/svg11.dtd"><svg t="1686724212019" class="icon" viewBox="0 0 1024 1024" version="1.1" xmlns="http://www.w3.org/2000/svg" p-id="1213" xmlns:xlink="http://www.w3.org/1999/xlink" width="200" height="200"><path d="M951.9 707.7l-3.4-8.4L852.3 149c-3.4-21.9-21.9-37.1-43.9-37.1H518.2c-20.3 0-37.1 13.5-42.2 32.1l-86.1 275.1h-135c3.4-5.1 5.1-11.8 5.1-18.6V250.3c0-10.1-5.1-20.3-13.5-27l-55.7-43.9c-15.2-11.8-35.4-10.1-47.3 5.1-11.8 15.2-10.1 35.4 5.1 47.3l43.9 33.8v135c0 6.8 1.7 13.5 5.1 18.6-74.3 0-133.3 60.8-133.3 135v251.5c0 60.8 48.9 109.7 109.7 109.7s109.7-48.9 109.7-109.7V804h369.6c18.6 65.8 77.6 113.1 150.2 113.1 86.1 0 157-69.2 157-157-0.1-18.7-3.5-35.6-8.6-52.4zM803.4 849.4c-33.8 0-62.4-18.6-77.6-45.6C719 790.4 714 775.2 714 760c0-48.9 40.5-89.4 89.4-89.4 40.5 0 74.3 27 86.1 64.1 1.7 8.4 3.4 16.9 3.4 25.3-0.1 48.9-40.6 89.4-89.5 89.4zM546.9 272.2c0-37.1 30.4-67.5 67.5-67.5H714c37.1 0 67.5 30.4 67.5 67.5v42.2c0 37.1-30.4 67.5-67.5 67.5h-99.6c-37.1 0-67.5-30.4-67.5-67.5v-42.2zM216.1 805.5c0 25.3-18.6 42.2-42.2 42.2s-42.2-18.6-42.2-42.2v-1.7c1.7-23.6 18.6-40.5 42.2-40.5s40.5 16.9 42.2 42.2z m167.1-64.1H197.5c-8.4 0-13.5-5.1-16.9-11.8v-5.1c0-10.1 6.8-16.9 16.9-16.9h185.6c10.1 0 16.9 6.8 16.9 16.9s-6.7 16.9-16.8 16.9z m0-101.2H197.5c-10.1 0-16.9-6.8-16.9-16.9s6.8-16.9 16.9-16.9h185.6c10.1 0 16.9 6.8 16.9 16.9s-6.7 16.9-16.8 16.9z m0-101.3H197.5c-10.1 0-16.9-6.8-16.9-16.9s6.8-16.9 16.9-16.9h185.6c10.1 0 16.9 6.8 16.9 16.9 0 10.1-6.7 16.9-16.8 16.9z"  p-id="1214"></path></svg>