<?xml version="1.0" standalone="no"?><!DOCTYPE svg PUBLIC "-//W3C//DTD SVG 1.1//EN" "http://www.w3.org/Graphics/SVG/1.1/DTD/svg11.dtd"><svg t="1686724333256" class="icon" viewBox="0 0 1024 1024" version="1.1" xmlns="http://www.w3.org/2000/svg" p-id="927" xmlns:xlink="http://www.w3.org/1999/xlink" width="200" height="200"><path d="M843.40179753 470.57477531v401.82467951c0 28.99765728-16.57008987 53.8527921-41.4252247 53.85279209H222.02342717c-24.85513482 0-41.42522469-24.85513482-41.4252247-53.85279209V470.57477531c0-45.56774717 37.28270222-82.85044939 82.85044938-82.85044939h497.1026963c45.56774717 0 82.85044939 37.28270222 82.85044938 82.85044939z m-579.95314568 41.42522469v165.70089876h207.12612346v-165.70089876h-207.12612346z m0-381.11206717c0-16.57008987 16.57008987-33.14017975 41.42522468-33.14017974h414.25224694c24.85513482 0 41.42522469 16.57008987 41.42522468 33.14017974v136.70324148c0 20.71261235-16.57008987 37.28270222-41.42522468 37.28270222H304.87387653c-24.85513482 0-41.42522469-16.57008987-41.42522468-33.14017973V130.88793283z"  p-id="928"></path></svg>