<?xml version="1.0" standalone="no"?><!DOCTYPE svg PUBLIC "-//W3C//DTD SVG 1.1//EN" "http://www.w3.org/Graphics/SVG/1.1/DTD/svg11.dtd"><svg t="1691145438078" class="icon" viewBox="0 0 1024 1024" version="1.1" xmlns="http://www.w3.org/2000/svg" p-id="11142" xmlns:xlink="http://www.w3.org/1999/xlink" width="200" height="200"><path d="M569.7536 266.3424c-117.32992 29.40928-204.16512 134.3488-204.16512 259.29728 0 7.51616 0.32768 14.9504 0.94208 22.28224H309.8624a316.23168 316.23168 0 0 1-0.77824-22.28224c0-139.6736 89.8048-258.6624 215.51104-303.84128l-3.80928-3.74784a55.21408 55.21408 0 0 1 0-78.848 57.0368 57.0368 0 0 1 79.872 0l175.75936 173.40416a55.21408 55.21408 0 0 1 0 78.848 57.0368 57.0368 0 0 1-79.872 0l-16.40448-16.1792a154.48064 154.48064 0 0 0 4.32128 186.49088l-44.52352 34.32448a209.67424 209.67424 0 0 1-0.18432-260.64896l-70.00064-69.09952zM316.80512 880.64C198.38976 880.64 102.4 785.94048 102.4 669.10208c0-116.8384 95.98976-211.53792 214.38464-211.53792 118.41536 0 214.40512 94.69952 214.40512 211.53792C531.18976 785.94048 435.2 880.64 316.78464 880.64z m-156.0576-253.37856a26.7264 26.7264 0 0 0 5.24288 30.96576 12.84096 12.84096 0 0 0 20.43904-3.46112 201.58464 201.58464 0 0 1 39.7312-55.93088 200.41728 200.41728 0 0 1 56.17664-38.78912 12.41088 12.41088 0 0 0 3.50208-20.11136 27.79136 27.79136 0 0 0-31.45728-5.20192 200.35584 200.35584 0 0 0-54.62016 37.9904 201.8304 201.8304 0 0 0-39.0144 54.55872v-0.02048z m550.44096 220.07808c-93.5936 0-169.45152-74.8544-169.45152-167.2192 0-92.34432 75.85792-167.19872 169.45152-167.19872 93.5936 0 169.472 74.8544 169.472 167.19872 0 92.3648-75.8784 167.2192-169.472 167.2192z"  p-id="11143"></path></svg>
