<?xml version="1.0" standalone="no"?><!DOCTYPE svg PUBLIC "-//W3C//DTD SVG 1.1//EN" "http://www.w3.org/Graphics/SVG/1.1/DTD/svg11.dtd"><svg t="1691144288691" class="icon" viewBox="0 0 1024 1024" version="1.1" xmlns="http://www.w3.org/2000/svg" p-id="5254" xmlns:xlink="http://www.w3.org/1999/xlink" width="200" height="200"><path d="M420.115692 78.769231h-324.923077a36.115692 36.115692 0 0 0-36.115692 36.115692v324.923077a36.076308 36.076308 0 0 0 36.115692 36.076308h324.923077a36.076308 36.076308 0 0 0 36.076308-36.076308v-324.923077A36.076308 36.076308 0 0 0 420.115692 78.769231z m-36.115692 324.923077H131.268923V150.961231H384v252.731077z m36.115692 144.423384h-324.923077a36.076308 36.076308 0 0 0-36.115692 36.076308v324.923077a36.115692 36.115692 0 0 0 36.115692 36.115692h324.923077a36.115692 36.115692 0 0 0 36.076308-36.115692v-324.923077a36.076308 36.076308 0 0 0-36.076308-36.076308z m-36.115692 324.923077H131.268923V620.307692H384v252.731077zM889.422769 78.769231h-324.923077a36.076308 36.076308 0 0 0-36.076307 36.115692v324.923077a36.076308 36.076308 0 0 0 36.076307 36.076308h324.923077a36.076308 36.076308 0 0 0 36.115693-36.076308v-324.923077A36.115692 36.115692 0 0 0 889.422769 78.769231z m-36.076307 324.923077H600.615385V150.961231h252.731077v252.731077z m-649.846154-180.499693h108.307692v108.307693h-108.307692v-108.307693z m0 469.307077h108.307692v108.307693h-108.307692v-108.307693z m613.730461-144.384h108.307693v108.307693h-108.307693v-108.307693z m0 288.807385h-72.192V945.230769H925.538462v-180.499692h-108.307693v72.192z m-288.807384 0h108.307692V945.230769h-108.307692v-108.307692z m144.384-613.730462h108.307692v108.307693h-108.307692v-108.307693z m-144.384 324.923077h108.307692v108.307693h-108.307692v-108.307693z m108.307692 108.307693h108.307692v180.499692h-108.307692v-180.499692z"  p-id="5255"></path></svg>
