<?xml version="1.0" standalone="no"?><!DOCTYPE svg PUBLIC "-//W3C//DTD SVG 1.1//EN" "http://www.w3.org/Graphics/SVG/1.1/DTD/svg11.dtd"><svg t="1690968674631" class="icon" viewBox="0 0 1024 1024" version="1.1" xmlns="http://www.w3.org/2000/svg" p-id="4123" xmlns:xlink="http://www.w3.org/1999/xlink" width="200" height="200"><path d="M952.786158 352.800941c0-0.516042-0.172014-0.860071-0.172014-1.376113-0.344028-1.892155-0.860071-3.612296-1.548127-5.332437L875.895851 159.285066c-12.901058-38.531161-48.852007-62.613136-93.919704-62.613136L255.440954 96.67193c-44.207626 0-78.610449 23.565933-90.995464 60.720981L83.770872 347.984546c-0.344028 1.204099-0.860071 2.752226-1.204099 4.472367-5.84848 18.061482-8.77272 36.466991-8.77272 55.044515 0 65.193348 35.778935 124.71023 93.231648 155.328742 23.565933 12.729044 51.432219 19.093566 82.738787 19.093566 0 0 0 0 0.172014 0 52.464304-0.172014 101.144297-23.221905 134.34302-62.613136 33.026709 39.219217 81.19066 62.097094 133.654964 62.441122 51.948261-0.344028 100.112212-23.393919 132.966907-62.613136 33.198723 39.563245 81.878717 62.441122 134.687049 62.441122 31.994625-0.172014 60.204939-6.880564 84.1149-19.953637 56.592642-30.96254 91.683521-90.135394 91.683521-154.640685C961.386864 388.235847 958.29061 369.658324 952.786158 352.800941zM766.322862 383.935495 254.408869 383.935495c-17.717453 0-31.994625-14.277171-31.994625-31.994625s14.277171-31.994625 31.994625-31.994625l512.086007 0c17.717453 0 31.994625 14.277171 31.994625 31.994625S784.040316 383.935495 766.322862 383.935495z"  p-id="4124"></path><path d="M894.989417 639.892491c0-17.717453-14.277171-31.994625-31.994625-31.994625-3.268268 0-6.192508 0.860071-9.288762 1.892155l0 0c-23.737947 9.460776-54.012431 14.449185-76.890307 13.245087-50.400134-2.752226-88.931295-12.729044-125.914329-44.207626-36.466991 31.134554-83.082815 48.852007-132.622879 49.36805-50.22812-0.344028-97.187972-12.901058-133.826978-44.207626-36.983034 31.478582-84.1149 46.787838-134.34302 46.787838l-0.172014 0c-30.618512 0-47.991937-5.84848-75.858223-16.169326-0.688056-0.344028-1.548127-0.516042-2.408198-0.860071-1.376113-0.516042-2.408198-0.860071-3.78431-1.376113 0 0-4.644381-0.860071-7.052579-0.860071 0 0 0 0 0 0-17.717453 0-31.994625 14.449185-31.994625 31.994625l0.172014 171.498068c0 45.067697 36.81102 81.878717 82.050731 81.878717l602.221401-0.344028c45.067697-0.172014 81.878717-36.983034 81.878717-82.050731L894.989417 639.892491z"  p-id="4125"></path></svg>
