<?xml version="1.0" standalone="no"?><!DOCTYPE svg PUBLIC "-//W3C//DTD SVG 1.1//EN" "http://www.w3.org/Graphics/SVG/1.1/DTD/svg11.dtd"><svg t="1691745715008" class="icon" viewBox="0 0 1024 1024" version="1.1" xmlns="http://www.w3.org/2000/svg" p-id="11008" xmlns:xlink="http://www.w3.org/1999/xlink" width="200" height="200"><path d="M768 288c19.2 0 32-12.8 32-32s-12.8-32-32-32H256c-19.2 0-32 12.8-32 32s12.8 32 32 32h512z m0 128c19.2 0 32-12.8 32-32s-12.8-32-32-32h-64c-19.2 0-32 12.8-32 32s12.8 32 32 32h64z m-448 0c19.2 0 32-12.8 32-32s-12.8-32-32-32H256c-19.2 0-32 12.8-32 32s12.8 32 32 32h64z m134.4 256v-115.2h70.4c38.4 0 64-6.4 86.4-22.4 19.2-16 28.8-41.6 28.8-80 0-35.2-9.6-60.8-28.8-76.8-19.2-16-41.6-22.4-73.6-25.6H384v320h70.4z m64-160H448v-96h70.4c19.2 0 32 3.2 41.6 9.6s16 19.2 16 35.2c0 16-6.4 28.8-16 38.4s-22.4 12.8-41.6 12.8zM320 544c19.2 0 32-12.8 32-32s-12.8-32-32-32H256c-19.2 0-32 12.8-32 32s12.8 32 32 32h64z m448 0c19.2 0 32-12.8 32-32s-12.8-32-32-32h-64c-19.2 0-32 12.8-32 32s12.8 32 32 32h64z m-448 128c19.2 0 32-12.8 32-32s-12.8-32-32-32H256c-19.2 0-32 12.8-32 32s12.8 32 32 32h64z m448 0c19.2 0 32-12.8 32-32s-12.8-32-32-32h-64c-19.2 0-32 12.8-32 32s12.8 32 32 32h64z m-384 128c19.2 0 32-12.8 32-32s-12.8-32-32-32-32 12.8-32 32 12.8 32 32 32z m256 0c19.2 0 32-12.8 32-32s-12.8-32-32-32-32 12.8-32 32 12.8 32 32 32zM256 800c19.2 0 32-12.8 32-32s-12.8-32-32-32-32 12.8-32 32 12.8 32 32 32z m256 0c19.2 0 32-12.8 32-32s-12.8-32-32-32-32 12.8-32 32 12.8 32 32 32z m256 0c19.2 0 32-12.8 32-32s-12.8-32-32-32-32 12.8-32 32 12.8 32 32 32z"  p-id="11009"></path></svg>
