<?xml version="1.0" standalone="no"?><!DOCTYPE svg PUBLIC "-//W3C//DTD SVG 1.1//EN" "http://www.w3.org/Graphics/SVG/1.1/DTD/svg11.dtd"><svg t="1691826323401" class="icon" viewBox="0 0 1024 1024" version="1.1" xmlns="http://www.w3.org/2000/svg" p-id="13105" xmlns:xlink="http://www.w3.org/1999/xlink" width="200" height="200"><path d="M480 712.64V352.064a32 32 0 1 1 64 0V712.64a64 64 0 1 1-64 0z m160-104.576a32 32 0 1 1 0-64v-32a32 32 0 1 1 0-64v-32a32 32 0 0 1 0-64v-8.96a124.16 124.16 0 0 0-130.56-119.04 120 120 0 0 0-125.44 119.04v8.96a32 32 0 1 1 0 64v32a32 32 0 1 1 0 64v32a32 32 0 0 1 0 64v96a96 96 0 1 1-192 0v-32a32 32 0 0 1 64 0v32a32 32 0 1 0 64 0v-360.96a182.72 182.72 0 0 1 187.84-183.04H512a187.2 187.2 0 0 1 192 183.04v360.96a32 32 0 1 0 64 0v-32a32 32 0 0 1 64 0v32a96 96 0 1 1-192 0v-96z m160-32a32 32 0 0 1-32-32v-192a32 32 0 0 1 64 0v192a32 32 0 0 1-32 32z m-576 0a32 32 0 0 1-32-32v-192a32 32 0 1 1 64 0v192a32 32 0 0 1-32 32z"  p-id="13106"></path></svg>
