<?xml version="1.0" standalone="no"?><!DOCTYPE svg PUBLIC "-//W3C//DTD SVG 1.1//EN" "http://www.w3.org/Graphics/SVG/1.1/DTD/svg11.dtd"><svg t="1691826247066" class="icon" viewBox="0 0 1024 1024" version="1.1" xmlns="http://www.w3.org/2000/svg" p-id="12801" xmlns:xlink="http://www.w3.org/1999/xlink" width="200" height="200"><path d="M707.52 692.48a124.16 124.16 0 0 1 2.88-28.16 104 104 0 0 1 9.28-24.96 133.76 133.76 0 0 1 15.68-23.04 238.72 238.72 0 0 1 22.08-23.04l18.56-17.28c4.48-3.776 8.672-7.968 12.48-12.48 2.944-3.488 5.408-7.36 7.36-11.52a43.52 43.52 0 0 0 3.2-12.48c0.32-5.12 0.32-10.24 0-15.36a22.72 22.72 0 0 0-22.4-28.16 20.8 20.8 0 0 0-21.44 13.12 45.44 45.44 0 0 0-3.52 14.08v16.96h-44.16v-7.68a65.92 65.92 0 0 1 16.96-48.64 72.96 72.96 0 0 1 53.44-16.96 71.68 71.68 0 0 1 51.2 16c11.712 12.256 17.728 28.864 16.64 45.76a101.76 101.76 0 0 1-1.92 20.16 77.12 77.12 0 0 1-6.08 17.92 84.48 84.48 0 0 1-10.88 16.96 160 160 0 0 1-16.32 16.64l-25.6 23.68a96 96 0 0 0-16 17.92 52.48 52.48 0 0 0-7.36 15.36h84.48v35.2h-139.52 0.96z m-197.12-120c0.64 14.24 2.976 28.32 7.04 41.92 2.56 9.312 7.904 17.6 15.36 23.68a50.56 50.56 0 0 0 52.8 0c7.456-6.08 12.8-14.368 15.36-23.68 4.032-13.632 6.4-27.68 7.04-41.92 1.28-17.28 1.92-38.592 1.92-64 0-25.376-0.64-46.72-1.92-64a178.24 178.24 0 0 0-7.04-41.92 46.72 46.72 0 0 0-15.36-23.68 50.56 50.56 0 0 0-52.8 0c-7.456 6.144-12.8 14.4-15.36 23.68a177.28 177.28 0 0 0-7.04 41.92c-1.28 17.088-1.92 38.4-1.92 64s0.64 46.944 1.92 64z m-71.68-139.2a169.28 169.28 0 0 1 16.96-60.16 96 96 0 0 1 37.76-39.04 161.92 161.92 0 0 1 132.16 0 96 96 0 0 1 37.76 39.04 169.28 169.28 0 0 1 16.96 60.16 768 768 0 0 1 0 153.28 168.96 168.96 0 0 1-16.96 59.84 89.92 89.92 0 0 1-37.76 38.4 170.56 170.56 0 0 1-132.16 0 89.92 89.92 0 0 1-37.76-38.4 168.96 168.96 0 0 1-16.96-59.84 768 768 0 0 1 0-153.28z m-124.48-40.96a35.52 35.52 0 0 0-34.56-18.24 34.56 34.56 0 0 0-22.72 7.36 49.28 49.28 0 0 0-14.08 24 205.44 205.44 0 0 0-7.04 43.52c-1.28 17.92-1.92 39.904-1.92 65.92a634.88 634.88 0 0 0 2.88 67.2c1.056 13.568 3.936 26.944 8.64 39.68 2.624 7.808 7.808 14.464 14.72 18.88 6.4 3.36 13.568 5.024 20.8 4.8 6.208 0.128 12.416-0.96 18.24-3.2a32 32 0 0 0 14.72-13.44 86.72 86.72 0 0 0 9.6-28.16 257.92 257.92 0 0 0 3.52-48h73.6a329.28 329.28 0 0 1-4.48 56.32 128 128 0 0 1-17.28 46.72 85.12 85.12 0 0 1-35.2 32 133.76 133.76 0 0 1-59.2 11.2 139.2 139.2 0 0 1-65.92-13.44 89.92 89.92 0 0 1-37.76-38.4 168.96 168.96 0 0 1-16.96-59.84 768 768 0 0 1 0-153.28 169.28 169.28 0 0 1 16.96-60.16 96 96 0 0 1 37.76-39.04 132.8 132.8 0 0 1 65.92-14.08 128 128 0 0 1 62.08 12.8c14.016 7.392 25.728 18.464 33.92 32 7.488 13.12 12.288 27.584 14.08 42.56 1.824 14.24 2.784 28.544 2.88 42.88h-73.6a132.8 132.8 0 0 0-9.6-58.56z"  p-id="12802"></path></svg>
