<?xml version="1.0" standalone="no"?><!DOCTYPE svg PUBLIC "-//W3C//DTD SVG 1.1//EN" "http://www.w3.org/Graphics/SVG/1.1/DTD/svg11.dtd"><svg t="1691826219145" class="icon" viewBox="0 0 1024 1024" version="1.1" xmlns="http://www.w3.org/2000/svg" p-id="12648" xmlns:xlink="http://www.w3.org/1999/xlink" width="200" height="200"><path d="M728.949153 433.898305a295.050847 295.050847 0 0 0-226.668475 106.131526A173.559322 173.559322 0 0 0 262.942373 590.101695H216.949153a216.949153 216.949153 0 0 0 0 433.898305h512a295.050847 295.050847 0 0 0 0-590.101695z m0 512H216.949153a138.847458 138.847458 0 0 1 0-277.694915h45.99322a78.101695 78.101695 0 0 0 65.258305-34.711865A95.457627 95.457627 0 0 1 459.932203 605.548475 78.101695 78.101695 0 0 0 562.245424 590.101695 216.949153 216.949153 0 1 1 728.949153 945.898305z" p-id="12649"></path><path d="M179.373559 547.666441C186.055593 546.711864 192.824407 546.711864 199.59322 546.711864h45.993221a171.56339 171.56339 0 0 1 17.78983-22.475932 242.983051 242.983051 0 0 1 463.576949-133.293559 292.968136 292.968136 0 0 1 97.974238 22.128813 328.200678 328.200678 0 0 0-59.877966-127.479322L885.152542 165.315254 824.40678 104.135593 703.696271 224.238644A326.725424 326.725424 0 0 0 538.033898 158.112542V0H451.254237v160.368814a328.894915 328.894915 0 0 0-148.39322 63.78305L182.671186 104.135593 121.491525 165.315254 241.507797 285.505085A328.894915 328.894915 0 0 0 177.724746 433.898305H17.355932v86.779661h158.112543c0.954576 9.111864 2.256271 18.136949 3.905084 26.988475zM298.001356 729.469831a204.279322 204.279322 0 0 0-41.741017-2.60339H199.59322v173.559322h34.711865v-65.258305h22.90983a201.849492 201.849492 0 0 0 36.447458-2.516611A50.158644 50.158644 0 0 0 312.40678 824.40678a47.642034 47.642034 0 0 0 14.752542-17.355933 56.667119 56.667119 0 0 0 5.814237-26.988474A54.324068 54.324068 0 0 0 323.080678 746.305085a45.646102 45.646102 0 0 0-25.079322-16.835254z m-5.03322 64.911186a22.909831 22.909831 0 0 1-10.934238 8.677966 91.378983 91.378983 0 0 1-27.769491 2.69017h-19.265085v-49.464407h17.355932a172.344407 172.344407 0 0 1 25.252882 1.128135 24.558644 24.558644 0 0 1 14.145084 7.72339 22.562712 22.562712 0 0 1 5.20678 15.880678 23.256949 23.256949 0 0 1-3.991864 13.364068zM445.613559 845.494237l-31.501017-118.627796h-52.588474v173.90644h32.629152V763.834576l34.364746 136.938305h33.844068l34.538305-136.938305v136.938305h32.629153V726.866441h-52.675255l-31.240678 118.627796zM594.267119 753.941695a94.850169 94.850169 0 0 1-28.37695 16.227797v30.199322a115.677288 115.677288 0 0 0 43.389831-25.252882v125.656949H642.169492V726.085424h-26.901695a61.35322 61.35322 0 0 1-21.000678 27.856271zM748.561356 726.085424a47.294915 47.294915 0 0 0-39.397966 17.87661c-11.454915 14.318644-17.355932 37.922712-17.355932 70.638644s5.12 56.580339 15.533559 69.423729a49.811525 49.811525 0 0 0 40.96 19.525424 47.208136 47.208136 0 0 0 39.311186-17.355933c11.454915-14.405424 17.355932-38.009492 17.355933-70.898983s-5.640678-56.667119-17.355933-70.898983a47.728814 47.728814 0 0 0-39.050847-18.310508z m18.136949 132.338983a26.033898 26.033898 0 0 1-7.376271 13.797966 16.401356 16.401356 0 0 1-10.760678 3.905085 16.661695 16.661695 0 0 1-10.760678-3.818305 29.765424 29.765424 0 0 1-7.81017-15.273221 193.518644 193.518644 0 0 1-3.037288-42.001356 193.345085 193.345085 0 0 1 3.384407-43.38983A26.033898 26.033898 0 0 1 737.627119 757.586441a17.355932 17.355932 0 0 1 10.847457-3.818305 16.574915 16.574915 0 0 1 10.673899 3.818305 30.546441 30.546441 0 0 1 7.810169 15.36 188.311864 188.311864 0 0 1 3.037288 42.088135 192.04339 192.04339 0 0 1-3.297627 43.389831z" p-id="12650"></path></svg>