<?xml version="1.0" standalone="no"?><!DOCTYPE svg PUBLIC "-//W3C//DTD SVG 1.1//EN" "http://www.w3.org/Graphics/SVG/1.1/DTD/svg11.dtd"><svg t="1691826142685" class="icon" viewBox="0 0 1024 1024" version="1.1" xmlns="http://www.w3.org/2000/svg" p-id="12495" xmlns:xlink="http://www.w3.org/1999/xlink" width="200" height="200"><path d="M728.949153 433.898305a295.050847 295.050847 0 0 0-226.668475 106.131526A173.559322 173.559322 0 0 0 262.942373 590.101695H216.949153a216.949153 216.949153 0 0 0 0 433.898305h512a295.050847 295.050847 0 0 0 0-590.101695z m0 512H216.949153a138.847458 138.847458 0 0 1 0-277.694915h45.99322a78.101695 78.101695 0 0 0 65.258305-34.711865A95.457627 95.457627 0 0 1 459.932203 605.548475 78.101695 78.101695 0 0 0 562.245424 590.101695 216.949153 216.949153 0 1 1 728.949153 945.898305z" p-id="12496"></path><path d="M179.373559 547.666441C186.055593 546.711864 192.824407 546.711864 199.59322 546.711864h45.993221a171.56339 171.56339 0 0 1 17.78983-22.475932 242.983051 242.983051 0 0 1 463.576949-133.293559 292.968136 292.968136 0 0 1 97.974238 22.128813 328.200678 328.200678 0 0 0-59.877966-127.479322L885.152542 165.315254 824.40678 104.135593 703.696271 224.238644A326.725424 326.725424 0 0 0 538.033898 158.112542V0H451.254237v160.368814a328.894915 328.894915 0 0 0-148.39322 63.78305L182.671186 104.135593 121.491525 165.315254 241.507797 285.505085A328.894915 328.894915 0 0 0 177.724746 433.898305H17.355932v86.779661h158.112543c0.954576 9.111864 2.256271 18.136949 3.905084 26.988475zM281.079322 724.349831a186.749831 186.749831 0 0 0-38.790508-2.429831h-52.067797v161.496949h32.629152v-60.745763h21.000678a184.40678 184.40678 0 0 0 33.844068-2.34305 45.819661 45.819661 0 0 0 30.633221-23.517289 53.369492 53.369492 0 0 0 5.380339-25.079322 49.898305 49.898305 0 0 0-9.372204-31.414237 42.088136 42.088136 0 0 0-23.256949-15.967457z m-4.686102 60.225084a21.261017 21.261017 0 0 1-10.15322 7.983729 85.911864 85.911864 0 0 1-26.033898 2.51661h-17.616271v-45.819661h15.707118a166.269831 166.269831 0 0 1 23.517288 1.041356 22.649492 22.649492 0 0 1 13.103729 7.202712 20.740339 20.740339 0 0 1 5.20678 14.492203 21.955254 21.955254 0 0 1-3.731526 12.583051zM418.104407 832.04339l-29.244746-110.12339h-48.856949v161.496949h30.286102V756.284746l31.934915 127.132203h31.414237l32.108475-127.132203v127.132203h30.286101V721.92h-48.943728l-28.984407 110.12339zM589.581017 828.225085a198.551864 198.551864 0 0 0 20.219661-20.56678 84.957288 84.957288 0 0 0 12.409491-20.740339 55.452203 55.452203 0 0 0 3.905085-20.740339 42.174915 42.174915 0 0 0-13.624407-32.021695 52.588475 52.588475 0 0 0-37.575593-12.930169 58.315932 58.315932 0 0 0-36.360678 11.107796 50.592542 50.592542 0 0 0-17.355932 36.707797l30.80678 3.124068a30.286102 30.286102 0 0 1 6.595254-19.438644 23.690847 23.690847 0 0 1 30.80678 0 21.521356 21.521356 0 0 1 5.553898 15.967457 34.017627 34.017627 0 0 1-6.334915 18.917966 225.627119 225.627119 0 0 1-26.033899 26.033899 201.936271 201.936271 0 0 0-34.711864 38.703729 73.762712 73.762712 0 0 0-10.587119 30.893559h108.474577v-28.550509h-61.092882a48.336271 48.336271 0 0 1 6.334915-8.677966c2.60339-2.863729 8.764746-8.851525 18.570848-17.78983zM653.711186 852.43661h30.980339v30.980339h-30.980339zM769.562034 775.376271a46.687458 46.687458 0 0 0-21.174237 5.12l4.859661-27.422373h58.402711v-28.984406H729.816949l-15.880678 84.089491 25.166102 3.644746a31.327458 31.327458 0 0 1 23.864407-11.802034 22.302373 22.302373 0 0 1 17.355932 7.463051 32.455593 32.455593 0 0 1 6.682034 22.302373 35.406102 35.406102 0 0 1-6.768814 23.690847 20.56678 20.56678 0 0 1-16.401356 7.896949 21.261017 21.261017 0 0 1-15.012881-6.074576 27.335593 27.335593 0 0 1-7.81017-16.574915l-30.806779 3.037288a49.377627 49.377627 0 0 0 16.835254 32.282034 53.976949 53.976949 0 0 0 36.447458 12.062373 51.11322 51.11322 0 0 0 43.38983-21.434577 58.142373 58.142373 0 0 0 11.628475-35.579661 53.976949 53.976949 0 0 0-14.318644-38.877288 46.600678 46.600678 0 0 0-34.625085-14.839322z" p-id="12497"></path></svg>