<?xml version="1.0" standalone="no"?><!DOCTYPE svg PUBLIC "-//W3C//DTD SVG 1.1//EN" "http://www.w3.org/Graphics/SVG/1.1/DTD/svg11.dtd"><svg t="1691826066971" class="icon" viewBox="0 0 1024 1024" version="1.1" xmlns="http://www.w3.org/2000/svg" p-id="12191" xmlns:xlink="http://www.w3.org/1999/xlink" width="200" height="200"><path d="M736 768a32 32 0 0 1-22.72-9.28l-160-160a32 32 0 0 1 45.12-45.12l160 160A32 32 0 0 1 736 768z m32-160a32 32 0 0 1-22.72-9.28l-128-128a32 32 0 0 1 45.12-45.12l128 128A32 32 0 0 1 768 608z m0-192a32 32 0 0 1-22.72-9.28l-128-128A32 32 0 0 1 662.4 233.6l128 128A32 32 0 0 1 768 416z m-192 384a32 32 0 0 1-22.72-9.28l-128-128a32 32 0 0 1 45.12-45.12l128 128A32 32 0 0 1 576 800z m-192 0a32 32 0 0 1-22.72-9.28l-128-128A32 32 0 0 1 278.4 617.6l128 128A32 32 0 0 1 384 800z m0-512a96 96 0 1 1 0 192 96 96 0 0 1 0-192z m0-64a160 160 0 1 0 0 320 160 160 0 0 0 0-320z"  p-id="12192"></path></svg>
