<svg xmlns="http://www.w3.org/2000/svg" viewBox="0 0 26 26"><defs><style>.cls-1{fill:none;}.cls-2{opacity:0.2;}.cls-2,.cls-3{isolation:isolate;}.cls-3{opacity:0.5;}.cls-4{fill:#ff6c66;}</style></defs><g id="图层_2" data-name="图层 2"><g id="图层_1-2" data-name="图层 1"><rect id="矩形_736-4" data-name="矩形 736-4" class="cls-1" width="26" height="26"/><g id="组_5348-7" data-name="组 5348-7"><ellipse id="椭圆_169-6" data-name="椭圆 169-6" class="cls-2" cx="13.15" cy="24.13" rx="3.41" ry="1.04"/><path id="椭圆_168-6" data-name="椭圆 168-6" class="cls-3" d="M13.15,23.51c1.32,0,2.39.28,2.39.62s-1.07.61-2.39.61-2.39-.27-2.39-.61S11.83,23.51,13.15,23.51Z"/></g><path class="cls-4" d="M19.42,4.29h0A9,9,0,1,0,6.51,16.79h0L13,24.26l6.25-7.19A9,9,0,0,0,19.42,4.29Zm-3,9.82h0a4.92,4.92,0,1,1,.16-7A4.92,4.92,0,0,1,16.4,14.11Z"/></g></g></svg>