<?xml version="1.0" standalone="no"?><!DOCTYPE svg PUBLIC "-//W3C//DTD SVG 1.1//EN" "http://www.w3.org/Graphics/SVG/1.1/DTD/svg11.dtd"><svg t="1691745639165" class="icon" viewBox="0 0 1024 1024" version="1.1" xmlns="http://www.w3.org/2000/svg" p-id="10856" xmlns:xlink="http://www.w3.org/1999/xlink" width="200" height="200"><path d="M768 288c19.2 0 32-12.8 32-32s-12.8-32-32-32H256c-19.2 0-32 12.8-32 32s12.8 32 32 32h512z m0 128c19.2 0 32-12.8 32-32s-12.8-32-32-32h-64c-19.2 0-32 12.8-32 32s12.8 32 32 32h64z m-448 0c19.2 0 32-12.8 32-32s-12.8-32-32-32H256c-19.2 0-32 12.8-32 32s12.8 32 32 32h64z m0 128c19.2 0 32-12.8 32-32s-12.8-32-32-32H256c-19.2 0-32 12.8-32 32s12.8 32 32 32h64z m448 0c19.2 0 32-12.8 32-32s-12.8-32-32-32h-64c-19.2 0-32 12.8-32 32s12.8 32 32 32h64z m-448 128c19.2 0 32-12.8 32-32s-12.8-32-32-32H256c-19.2 0-32 12.8-32 32s12.8 32 32 32h64z m448 0c19.2 0 32-12.8 32-32s-12.8-32-32-32h-64c-19.2 0-32 12.8-32 32s12.8 32 32 32h64z m-384 128c19.2 0 32-12.8 32-32s-12.8-32-32-32-32 12.8-32 32 12.8 32 32 32z m256 0c19.2 0 32-12.8 32-32s-12.8-32-32-32-32 12.8-32 32 12.8 32 32 32zM256 800c19.2 0 32-12.8 32-32s-12.8-32-32-32-32 12.8-32 32 12.8 32 32 32z m256 0c19.2 0 32-12.8 32-32s-12.8-32-32-32-32 12.8-32 32 12.8 32 32 32z m256 0c19.2 0 32-12.8 32-32s-12.8-32-32-32-32 12.8-32 32 12.8 32 32 32z m-323.2-128v-227.2l128 227.2H640V352h-60.8v224l-124.8-224H384v320h60.8z"  p-id="10857"></path></svg>
