<?xml version="1.0" standalone="no"?><!DOCTYPE svg PUBLIC "-//W3C//DTD SVG 1.1//EN" "http://www.w3.org/Graphics/SVG/1.1/DTD/svg11.dtd"><svg t="1691745815722" class="icon" viewBox="0 0 1024 1024" version="1.1" xmlns="http://www.w3.org/2000/svg" p-id="11560" xmlns:xlink="http://www.w3.org/1999/xlink" width="200" height="200"><path d="M622.4 320.032v118.4a71.68 71.68 0 0 1 67.2-35.2 69.76 69.76 0 0 1 51.84 18.56 83.2 83.2 0 0 1 18.24 59.84v203.84h-70.72v-190.08a47.36 47.36 0 0 0-7.04-30.08 28.8 28.8 0 0 0-23.04-8.32 37.12 37.12 0 0 0-37.44 45.44v183.04H550.4v-365.44h72z m-205.44 0a106.24 106.24 0 0 1 47.36 9.6c12.48 5.696 23.456 14.24 32 24.96a96 96 0 0 1 16.96 35.2 160 160 0 0 1 5.12 39.68 131.2 131.2 0 0 1-8.32 49.28 89.28 89.28 0 0 1-23.68 34.24 98.24 98.24 0 0 1-36.48 19.84 160 160 0 0 1-47.68 6.72H361.6v145.92H288v-365.44h128.96z m-22.4 165.44a48.64 48.64 0 0 0 35.52-13.44 56 56 0 0 0 13.44-41.6 64 64 0 0 0-11.84-41.92 48.32 48.32 0 0 0-39.36-14.4h-32v111.04h32l2.24 0.32z"  p-id="11561"></path></svg>
