<?xml version="1.0" standalone="no"?><!DOCTYPE svg PUBLIC "-//W3C//DTD SVG 1.1//EN" "http://www.w3.org/Graphics/SVG/1.1/DTD/svg11.dtd"><svg t="1691745740018" class="icon" viewBox="0 0 1024 1024" version="1.1" xmlns="http://www.w3.org/2000/svg" p-id="11160" xmlns:xlink="http://www.w3.org/1999/xlink" width="200" height="200"><path d="M512 384c19.2 0 32 12.8 32 32s-12.8 32-32 32-32-12.8-32-32 12.8-32 32-32z m-240-64H256c-19.2 0-32-12.8-32-32s12.8-32 32-32h512c19.2 0 32 12.8 32 32s-12.8 32-32 32h-16l-121.6 192h9.6c19.2 0 32 12.8 32 32s-12.8 32-32 32c-16 0-28.8-12.8-32-28.8l-70.4 108.8c-12.8 19.2-41.6 19.2-54.4 0L416 547.2c-3.2 16-16 28.8-32 28.8-19.2 0-32-12.8-32-32s12.8-32 32-32h9.6l-121.6-192z m73.6 0l166.4 259.2 166.4-259.2H345.6zM256 768c19.2 0 32 12.8 32 32s-12.8 32-32 32-32-12.8-32-32 12.8-32 32-32z m128 0c19.2 0 32 12.8 32 32s-12.8 32-32 32-32-12.8-32-32 12.8-32 32-32z m128 0c19.2 0 32 12.8 32 32s-12.8 32-32 32-32-12.8-32-32 12.8-32 32-32z m128 0c19.2 0 32 12.8 32 32s-12.8 32-32 32-32-12.8-32-32 12.8-32 32-32z m128 0c19.2 0 32 12.8 32 32s-12.8 32-32 32-32-12.8-32-32 12.8-32 32-32z m-64-128c19.2 0 32 12.8 32 32s-12.8 32-32 32-32-12.8-32-32 12.8-32 32-32z m-128 0c19.2 0 32 12.8 32 32s-12.8 32-32 32-32-12.8-32-32 12.8-32 32-32z m-128 0c19.2 0 32 12.8 32 32s-12.8 32-32 32-32-12.8-32-32 12.8-32 32-32z m-128 0c19.2 0 32 12.8 32 32s-12.8 32-32 32-32-12.8-32-32 12.8-32 32-32z"  p-id="11161"></path></svg>
