<?xml version="1.0" encoding="UTF-8"?>
<svg width="1568px" height="778px" viewBox="0 0 1568 778" version="1.1" xmlns="http://www.w3.org/2000/svg" xmlns:xlink="http://www.w3.org/1999/xlink">
    <title>虫情灯</title>
    <g id="页面-1" stroke="none" stroke-width="1" fill="none" fill-rule="evenodd">
        <g id="虫情灯">
            <g id="设备属性" transform="translate(1.000000, 0.000000)">
                <rect id="矩形" fill="#FFFFFF" x="0" y="0" width="1567" height="117" rx="13"></rect>
                <g id="温度" transform="translate(17.000000, 48.000000)">
                    <text font-family="PingFangSC-Regular, PingFang SC" font-size="12" font-weight="normal" fill="#000000">
                        <tspan x="55" y="39">温度</tspan>
                    </text>
                    <text id="25" font-family="PingFangSC-Regular, PingFang SC" font-size="18" font-weight="normal" fill="#000000">
                        <tspan x="56" y="19">25</tspan>
                    </text>
                    <ellipse id="椭圆形" fill="#D68410" cx="21.5" cy="22" rx="21.5" ry="21"></ellipse>
                    <g id="icon" transform="translate(14.000000, 10.000000)" fill="#FFFFFF" fill-rule="nonzero">
                        <path d="M7.00000012,1.91594982 C8.65685399,1.91594982 10.0000001,3.20264975 10.0000001,4.78987456 L10.0000001,11.6010762 C9.99954159,12.1023493 10.204173,12.5838308 10.5699994,12.9422411 C12.4944754,14.8223217 12.4739153,17.8380066 10.5239691,19.6938461 C8.57402283,21.5496856 5.42597717,21.5496856 3.47603091,19.6938461 C1.52608464,17.8380066 1.50552464,14.8223217 3.43000055,12.9422411 C3.795827,12.5838308 4.0004584,12.1023493 4.00000012,11.6010762 L4.00000012,4.78987456 C4.00000012,3.20264975 5.34314601,1.91594982 7.00000012,1.91594982 Z M7.00000009,0 C4.23857668,0 2.00000009,2.14449989 2.00000009,4.78987456 L2.00000009,11.6010762 C-0.692623946,14.233734 -0.662647751,18.4546935 2.06711895,21.0520115 C4.79688564,23.6493295 9.20311435,23.6493295 11.932881,21.0520115 C14.6626477,18.4546935 14.6926239,14.233734 12.0000001,11.6010762 L12.0000001,4.78987456 C12.0000001,2.14449989 9.76142332,0 7.00000009,0 Z M7.99999984,14.626361 C8.78393575,15.0599458 9.16613725,15.9438848 8.93185135,16.7815065 C8.69756545,17.6191281 7.90521121,18.201572 7,18.201572 C6.09478878,18.201572 5.30243455,17.6191281 5.06814865,16.7815065 C4.83386274,15.9438848 5.21606424,15.0599458 6.00000015,14.626361 L6.00000015,4.78987456 C6.00000015,4.26079962 6.44771533,3.83189965 7,3.83189965 C7.55228466,3.83189965 7.99999984,4.26079962 7.99999984,4.78987456 L7.99999984,14.626361 Z" id="形状"></path>
                    </g>
                </g>
                <g id="温度" transform="translate(1146.000000, 48.000000)">
                    <text font-family="PingFangSC-Regular, PingFang SC" font-size="12" font-weight="normal" fill="#000000">
                        <tspan x="55" y="39">温度</tspan>
                    </text>
                    <text id="25" font-family="PingFangSC-Regular, PingFang SC" font-size="18" font-weight="normal" fill="#000000">
                        <tspan x="56" y="19">25</tspan>
                    </text>
                    <ellipse id="椭圆形" fill="#EBAC53" cx="21.5" cy="22" rx="21.5" ry="21"></ellipse>
                    <g id="icon" transform="translate(14.000000, 10.000000)" fill="#FFFFFF" fill-rule="nonzero">
                        <path d="M7.00000012,1.91594982 C8.65685399,1.91594982 10.0000001,3.20264975 10.0000001,4.78987456 L10.0000001,11.6010762 C9.99954159,12.1023493 10.204173,12.5838308 10.5699994,12.9422411 C12.4944754,14.8223217 12.4739153,17.8380066 10.5239691,19.6938461 C8.57402283,21.5496856 5.42597717,21.5496856 3.47603091,19.6938461 C1.52608464,17.8380066 1.50552464,14.8223217 3.43000055,12.9422411 C3.795827,12.5838308 4.0004584,12.1023493 4.00000012,11.6010762 L4.00000012,4.78987456 C4.00000012,3.20264975 5.34314601,1.91594982 7.00000012,1.91594982 Z M7.00000009,0 C4.23857668,0 2.00000009,2.14449989 2.00000009,4.78987456 L2.00000009,11.6010762 C-0.692623946,14.233734 -0.662647751,18.4546935 2.06711895,21.0520115 C4.79688564,23.6493295 9.20311435,23.6493295 11.932881,21.0520115 C14.6626477,18.4546935 14.6926239,14.233734 12.0000001,11.6010762 L12.0000001,4.78987456 C12.0000001,2.14449989 9.76142332,0 7.00000009,0 Z M7.99999984,14.626361 C8.78393575,15.0599458 9.16613725,15.9438848 8.93185135,16.7815065 C8.69756545,17.6191281 7.90521121,18.201572 7,18.201572 C6.09478878,18.201572 5.30243455,17.6191281 5.06814865,16.7815065 C4.83386274,15.9438848 5.21606424,15.0599458 6.00000015,14.626361 L6.00000015,4.78987456 C6.00000015,4.26079962 6.44771533,3.83189965 7,3.83189965 C7.55228466,3.83189965 7.99999984,4.26079962 7.99999984,4.78987456 L7.99999984,14.626361 Z" id="形状"></path>
                    </g>
                </g>
                <g id="温度" transform="translate(1469.000000, 48.000000)">
                    <text font-family="PingFangSC-Regular, PingFang SC" font-size="12" font-weight="normal" fill="#000000">
                        <tspan x="55" y="39">温度</tspan>
                    </text>
                    <text id="25" font-family="PingFangSC-Regular, PingFang SC" font-size="18" font-weight="normal" fill="#000000">
                        <tspan x="56" y="19">25</tspan>
                    </text>
                    <ellipse id="椭圆形" fill="#D68410" cx="21.5" cy="22" rx="21.5" ry="21"></ellipse>
                    <g id="icon" transform="translate(14.000000, 10.000000)" fill="#FFFFFF" fill-rule="nonzero">
                        <path d="M7.00000012,1.91594982 C8.65685399,1.91594982 10.0000001,3.20264975 10.0000001,4.78987456 L10.0000001,11.6010762 C9.99954159,12.1023493 10.204173,12.5838308 10.5699994,12.9422411 C12.4944754,14.8223217 12.4739153,17.8380066 10.5239691,19.6938461 C8.57402283,21.5496856 5.42597717,21.5496856 3.47603091,19.6938461 C1.52608464,17.8380066 1.50552464,14.8223217 3.43000055,12.9422411 C3.795827,12.5838308 4.0004584,12.1023493 4.00000012,11.6010762 L4.00000012,4.78987456 C4.00000012,3.20264975 5.34314601,1.91594982 7.00000012,1.91594982 Z M7.00000009,0 C4.23857668,0 2.00000009,2.14449989 2.00000009,4.78987456 L2.00000009,11.6010762 C-0.692623946,14.233734 -0.662647751,18.4546935 2.06711895,21.0520115 C4.79688564,23.6493295 9.20311435,23.6493295 11.932881,21.0520115 C14.6626477,18.4546935 14.6926239,14.233734 12.0000001,11.6010762 L12.0000001,4.78987456 C12.0000001,2.14449989 9.76142332,0 7.00000009,0 Z M7.99999984,14.626361 C8.78393575,15.0599458 9.16613725,15.9438848 8.93185135,16.7815065 C8.69756545,17.6191281 7.90521121,18.201572 7,18.201572 C6.09478878,18.201572 5.30243455,17.6191281 5.06814865,16.7815065 C4.83386274,15.9438848 5.21606424,15.0599458 6.00000015,14.626361 L6.00000015,4.78987456 C6.00000015,4.26079962 6.44771533,3.83189965 7,3.83189965 C7.55228466,3.83189965 7.99999984,4.26079962 7.99999984,4.78987456 L7.99999984,14.626361 Z" id="形状"></path>
                    </g>
                </g>
                <g id="温度" transform="translate(1308.000000, 48.000000)">
                    <text font-family="PingFangSC-Regular, PingFang SC" font-size="12" font-weight="normal" fill="#000000">
                        <tspan x="55" y="39">温度</tspan>
                    </text>
                    <text id="25" font-family="PingFangSC-Regular, PingFang SC" font-size="18" font-weight="normal" fill="#000000">
                        <tspan x="56" y="19">25</tspan>
                    </text>
                    <ellipse id="椭圆形" fill="#2DD4D2" cx="21.5" cy="22" rx="21.5" ry="21"></ellipse>
                    <g id="icon" transform="translate(14.000000, 10.000000)" fill="#FFFFFF" fill-rule="nonzero">
                        <path d="M7.00000012,1.91594982 C8.65685399,1.91594982 10.0000001,3.20264975 10.0000001,4.78987456 L10.0000001,11.6010762 C9.99954159,12.1023493 10.204173,12.5838308 10.5699994,12.9422411 C12.4944754,14.8223217 12.4739153,17.8380066 10.5239691,19.6938461 C8.57402283,21.5496856 5.42597717,21.5496856 3.47603091,19.6938461 C1.52608464,17.8380066 1.50552464,14.8223217 3.43000055,12.9422411 C3.795827,12.5838308 4.0004584,12.1023493 4.00000012,11.6010762 L4.00000012,4.78987456 C4.00000012,3.20264975 5.34314601,1.91594982 7.00000012,1.91594982 Z M7.00000009,0 C4.23857668,0 2.00000009,2.14449989 2.00000009,4.78987456 L2.00000009,11.6010762 C-0.692623946,14.233734 -0.662647751,18.4546935 2.06711895,21.0520115 C4.79688564,23.6493295 9.20311435,23.6493295 11.932881,21.0520115 C14.6626477,18.4546935 14.6926239,14.233734 12.0000001,11.6010762 L12.0000001,4.78987456 C12.0000001,2.14449989 9.76142332,0 7.00000009,0 Z M7.99999984,14.626361 C8.78393575,15.0599458 9.16613725,15.9438848 8.93185135,16.7815065 C8.69756545,17.6191281 7.90521121,18.201572 7,18.201572 C6.09478878,18.201572 5.30243455,17.6191281 5.06814865,16.7815065 C4.83386274,15.9438848 5.21606424,15.0599458 6.00000015,14.626361 L6.00000015,4.78987456 C6.00000015,4.26079962 6.44771533,3.83189965 7,3.83189965 C7.55228466,3.83189965 7.99999984,4.26079962 7.99999984,4.78987456 L7.99999984,14.626361 Z" id="形状"></path>
                    </g>
                </g>
                <g id="温度" transform="translate(985.000000, 48.000000)">
                    <text font-family="PingFangSC-Regular, PingFang SC" font-size="12" font-weight="normal" fill="#000000">
                        <tspan x="55" y="39">温度</tspan>
                    </text>
                    <text id="25" font-family="PingFangSC-Regular, PingFang SC" font-size="18" font-weight="normal" fill="#000000">
                        <tspan x="56" y="19">25</tspan>
                    </text>
                    <ellipse id="椭圆形" fill="#E9754F" cx="21.5" cy="22" rx="21.5" ry="21"></ellipse>
                    <g id="icon" transform="translate(14.000000, 10.000000)" fill="#FFFFFF" fill-rule="nonzero">
                        <path d="M7.00000012,1.91594982 C8.65685399,1.91594982 10.0000001,3.20264975 10.0000001,4.78987456 L10.0000001,11.6010762 C9.99954159,12.1023493 10.204173,12.5838308 10.5699994,12.9422411 C12.4944754,14.8223217 12.4739153,17.8380066 10.5239691,19.6938461 C8.57402283,21.5496856 5.42597717,21.5496856 3.47603091,19.6938461 C1.52608464,17.8380066 1.50552464,14.8223217 3.43000055,12.9422411 C3.795827,12.5838308 4.0004584,12.1023493 4.00000012,11.6010762 L4.00000012,4.78987456 C4.00000012,3.20264975 5.34314601,1.91594982 7.00000012,1.91594982 Z M7.00000009,0 C4.23857668,0 2.00000009,2.14449989 2.00000009,4.78987456 L2.00000009,11.6010762 C-0.692623946,14.233734 -0.662647751,18.4546935 2.06711895,21.0520115 C4.79688564,23.6493295 9.20311435,23.6493295 11.932881,21.0520115 C14.6626477,18.4546935 14.6926239,14.233734 12.0000001,11.6010762 L12.0000001,4.78987456 C12.0000001,2.14449989 9.76142332,0 7.00000009,0 Z M7.99999984,14.626361 C8.78393575,15.0599458 9.16613725,15.9438848 8.93185135,16.7815065 C8.69756545,17.6191281 7.90521121,18.201572 7,18.201572 C6.09478878,18.201572 5.30243455,17.6191281 5.06814865,16.7815065 C4.83386274,15.9438848 5.21606424,15.0599458 6.00000015,14.626361 L6.00000015,4.78987456 C6.00000015,4.26079962 6.44771533,3.83189965 7,3.83189965 C7.55228466,3.83189965 7.99999984,4.26079962 7.99999984,4.78987456 L7.99999984,14.626361 Z" id="形状"></path>
                    </g>
                </g>
                <g id="温度" transform="translate(824.000000, 48.000000)">
                    <text font-family="PingFangSC-Regular, PingFang SC" font-size="12" font-weight="normal" fill="#000000">
                        <tspan x="55" y="39">温度</tspan>
                    </text>
                    <text id="25" font-family="PingFangSC-Regular, PingFang SC" font-size="18" font-weight="normal" fill="#000000">
                        <tspan x="56" y="19">25</tspan>
                    </text>
                    <ellipse id="椭圆形" fill="#CFD94A" cx="21.5" cy="22" rx="21.5" ry="21"></ellipse>
                    <g id="icon" transform="translate(14.000000, 10.000000)" fill="#FFFFFF" fill-rule="nonzero">
                        <path d="M7.00000012,1.91594982 C8.65685399,1.91594982 10.0000001,3.20264975 10.0000001,4.78987456 L10.0000001,11.6010762 C9.99954159,12.1023493 10.204173,12.5838308 10.5699994,12.9422411 C12.4944754,14.8223217 12.4739153,17.8380066 10.5239691,19.6938461 C8.57402283,21.5496856 5.42597717,21.5496856 3.47603091,19.6938461 C1.52608464,17.8380066 1.50552464,14.8223217 3.43000055,12.9422411 C3.795827,12.5838308 4.0004584,12.1023493 4.00000012,11.6010762 L4.00000012,4.78987456 C4.00000012,3.20264975 5.34314601,1.91594982 7.00000012,1.91594982 Z M7.00000009,0 C4.23857668,0 2.00000009,2.14449989 2.00000009,4.78987456 L2.00000009,11.6010762 C-0.692623946,14.233734 -0.662647751,18.4546935 2.06711895,21.0520115 C4.79688564,23.6493295 9.20311435,23.6493295 11.932881,21.0520115 C14.6626477,18.4546935 14.6926239,14.233734 12.0000001,11.6010762 L12.0000001,4.78987456 C12.0000001,2.14449989 9.76142332,0 7.00000009,0 Z M7.99999984,14.626361 C8.78393575,15.0599458 9.16613725,15.9438848 8.93185135,16.7815065 C8.69756545,17.6191281 7.90521121,18.201572 7,18.201572 C6.09478878,18.201572 5.30243455,17.6191281 5.06814865,16.7815065 C4.83386274,15.9438848 5.21606424,15.0599458 6.00000015,14.626361 L6.00000015,4.78987456 C6.00000015,4.26079962 6.44771533,3.83189965 7,3.83189965 C7.55228466,3.83189965 7.99999984,4.26079962 7.99999984,4.78987456 L7.99999984,14.626361 Z" id="形状"></path>
                    </g>
                </g>
                <g id="温度" transform="translate(662.000000, 48.000000)">
                    <text font-family="PingFangSC-Regular, PingFang SC" font-size="12" font-weight="normal" fill="#000000">
                        <tspan x="55" y="39">温度</tspan>
                    </text>
                    <text id="25" font-family="PingFangSC-Regular, PingFang SC" font-size="18" font-weight="normal" fill="#000000">
                        <tspan x="56" y="19">25</tspan>
                    </text>
                    <ellipse id="椭圆形" fill="#5F3DBC" cx="21.5" cy="22" rx="21.5" ry="21"></ellipse>
                    <g id="icon" transform="translate(14.000000, 10.000000)" fill="#FFFFFF" fill-rule="nonzero">
                        <path d="M7.00000012,1.91594982 C8.65685399,1.91594982 10.0000001,3.20264975 10.0000001,4.78987456 L10.0000001,11.6010762 C9.99954159,12.1023493 10.204173,12.5838308 10.5699994,12.9422411 C12.4944754,14.8223217 12.4739153,17.8380066 10.5239691,19.6938461 C8.57402283,21.5496856 5.42597717,21.5496856 3.47603091,19.6938461 C1.52608464,17.8380066 1.50552464,14.8223217 3.43000055,12.9422411 C3.795827,12.5838308 4.0004584,12.1023493 4.00000012,11.6010762 L4.00000012,4.78987456 C4.00000012,3.20264975 5.34314601,1.91594982 7.00000012,1.91594982 Z M7.00000009,0 C4.23857668,0 2.00000009,2.14449989 2.00000009,4.78987456 L2.00000009,11.6010762 C-0.692623946,14.233734 -0.662647751,18.4546935 2.06711895,21.0520115 C4.79688564,23.6493295 9.20311435,23.6493295 11.932881,21.0520115 C14.6626477,18.4546935 14.6926239,14.233734 12.0000001,11.6010762 L12.0000001,4.78987456 C12.0000001,2.14449989 9.76142332,0 7.00000009,0 Z M7.99999984,14.626361 C8.78393575,15.0599458 9.16613725,15.9438848 8.93185135,16.7815065 C8.69756545,17.6191281 7.90521121,18.201572 7,18.201572 C6.09478878,18.201572 5.30243455,17.6191281 5.06814865,16.7815065 C4.83386274,15.9438848 5.21606424,15.0599458 6.00000015,14.626361 L6.00000015,4.78987456 C6.00000015,4.26079962 6.44771533,3.83189965 7,3.83189965 C7.55228466,3.83189965 7.99999984,4.26079962 7.99999984,4.78987456 L7.99999984,14.626361 Z" id="形状"></path>
                    </g>
                </g>
                <g id="温度" transform="translate(501.000000, 48.000000)">
                    <text font-family="PingFangSC-Regular, PingFang SC" font-size="12" font-weight="normal" fill="#000000">
                        <tspan x="55" y="39">温度</tspan>
                    </text>
                    <text id="25" font-family="PingFangSC-Regular, PingFang SC" font-size="18" font-weight="normal" fill="#000000">
                        <tspan x="56" y="19">25</tspan>
                    </text>
                    <ellipse id="椭圆形" fill="#486FE1" cx="21.5" cy="22" rx="21.5" ry="21"></ellipse>
                    <g id="icon" transform="translate(14.000000, 10.000000)" fill="#FFFFFF" fill-rule="nonzero">
                        <path d="M7.00000012,1.91594982 C8.65685399,1.91594982 10.0000001,3.20264975 10.0000001,4.78987456 L10.0000001,11.6010762 C9.99954159,12.1023493 10.204173,12.5838308 10.5699994,12.9422411 C12.4944754,14.8223217 12.4739153,17.8380066 10.5239691,19.6938461 C8.57402283,21.5496856 5.42597717,21.5496856 3.47603091,19.6938461 C1.52608464,17.8380066 1.50552464,14.8223217 3.43000055,12.9422411 C3.795827,12.5838308 4.0004584,12.1023493 4.00000012,11.6010762 L4.00000012,4.78987456 C4.00000012,3.20264975 5.34314601,1.91594982 7.00000012,1.91594982 Z M7.00000009,0 C4.23857668,0 2.00000009,2.14449989 2.00000009,4.78987456 L2.00000009,11.6010762 C-0.692623946,14.233734 -0.662647751,18.4546935 2.06711895,21.0520115 C4.79688564,23.6493295 9.20311435,23.6493295 11.932881,21.0520115 C14.6626477,18.4546935 14.6926239,14.233734 12.0000001,11.6010762 L12.0000001,4.78987456 C12.0000001,2.14449989 9.76142332,0 7.00000009,0 Z M7.99999984,14.626361 C8.78393575,15.0599458 9.16613725,15.9438848 8.93185135,16.7815065 C8.69756545,17.6191281 7.90521121,18.201572 7,18.201572 C6.09478878,18.201572 5.30243455,17.6191281 5.06814865,16.7815065 C4.83386274,15.9438848 5.21606424,15.0599458 6.00000015,14.626361 L6.00000015,4.78987456 C6.00000015,4.26079962 6.44771533,3.83189965 7,3.83189965 C7.55228466,3.83189965 7.99999984,4.26079962 7.99999984,4.78987456 L7.99999984,14.626361 Z" id="形状"></path>
                    </g>
                </g>
                <g id="温度" transform="translate(340.000000, 48.000000)">
                    <text font-family="PingFangSC-Regular, PingFang SC" font-size="12" font-weight="normal" fill="#000000">
                        <tspan x="55" y="39">温度</tspan>
                    </text>
                    <text id="25" font-family="PingFangSC-Regular, PingFang SC" font-size="18" font-weight="normal" fill="#000000">
                        <tspan x="56" y="19">25</tspan>
                    </text>
                    <ellipse id="椭圆形" fill="#47B770" cx="21.5" cy="22" rx="21.5" ry="21"></ellipse>
                    <g id="icon" transform="translate(14.000000, 10.000000)" fill="#FFFFFF" fill-rule="nonzero">
                        <path d="M7.00000012,1.91594982 C8.65685399,1.91594982 10.0000001,3.20264975 10.0000001,4.78987456 L10.0000001,11.6010762 C9.99954159,12.1023493 10.204173,12.5838308 10.5699994,12.9422411 C12.4944754,14.8223217 12.4739153,17.8380066 10.5239691,19.6938461 C8.57402283,21.5496856 5.42597717,21.5496856 3.47603091,19.6938461 C1.52608464,17.8380066 1.50552464,14.8223217 3.43000055,12.9422411 C3.795827,12.5838308 4.0004584,12.1023493 4.00000012,11.6010762 L4.00000012,4.78987456 C4.00000012,3.20264975 5.34314601,1.91594982 7.00000012,1.91594982 Z M7.00000009,0 C4.23857668,0 2.00000009,2.14449989 2.00000009,4.78987456 L2.00000009,11.6010762 C-0.692623946,14.233734 -0.662647751,18.4546935 2.06711895,21.0520115 C4.79688564,23.6493295 9.20311435,23.6493295 11.932881,21.0520115 C14.6626477,18.4546935 14.6926239,14.233734 12.0000001,11.6010762 L12.0000001,4.78987456 C12.0000001,2.14449989 9.76142332,0 7.00000009,0 Z M7.99999984,14.626361 C8.78393575,15.0599458 9.16613725,15.9438848 8.93185135,16.7815065 C8.69756545,17.6191281 7.90521121,18.201572 7,18.201572 C6.09478878,18.201572 5.30243455,17.6191281 5.06814865,16.7815065 C4.83386274,15.9438848 5.21606424,15.0599458 6.00000015,14.626361 L6.00000015,4.78987456 C6.00000015,4.26079962 6.44771533,3.83189965 7,3.83189965 C7.55228466,3.83189965 7.99999984,4.26079962 7.99999984,4.78987456 L7.99999984,14.626361 Z" id="形状"></path>
                    </g>
                </g>
                <g id="温度" transform="translate(178.000000, 48.000000)">
                    <text font-family="PingFangSC-Regular, PingFang SC" font-size="12" font-weight="normal" fill="#000000">
                        <tspan x="55" y="39">温度</tspan>
                    </text>
                    <text id="25" font-family="PingFangSC-Regular, PingFang SC" font-size="18" font-weight="normal" fill="#000000">
                        <tspan x="56" y="19">25</tspan>
                    </text>
                    <ellipse id="椭圆形" fill="#80BF2F" cx="21.5" cy="22" rx="21.5" ry="21"></ellipse>
                    <g id="icon" transform="translate(14.000000, 10.000000)" fill="#FFFFFF" fill-rule="nonzero">
                        <path d="M7.00000012,1.91594982 C8.65685399,1.91594982 10.0000001,3.20264975 10.0000001,4.78987456 L10.0000001,11.6010762 C9.99954159,12.1023493 10.204173,12.5838308 10.5699994,12.9422411 C12.4944754,14.8223217 12.4739153,17.8380066 10.5239691,19.6938461 C8.57402283,21.5496856 5.42597717,21.5496856 3.47603091,19.6938461 C1.52608464,17.8380066 1.50552464,14.8223217 3.43000055,12.9422411 C3.795827,12.5838308 4.0004584,12.1023493 4.00000012,11.6010762 L4.00000012,4.78987456 C4.00000012,3.20264975 5.34314601,1.91594982 7.00000012,1.91594982 Z M7.00000009,0 C4.23857668,0 2.00000009,2.14449989 2.00000009,4.78987456 L2.00000009,11.6010762 C-0.692623946,14.233734 -0.662647751,18.4546935 2.06711895,21.0520115 C4.79688564,23.6493295 9.20311435,23.6493295 11.932881,21.0520115 C14.6626477,18.4546935 14.6926239,14.233734 12.0000001,11.6010762 L12.0000001,4.78987456 C12.0000001,2.14449989 9.76142332,0 7.00000009,0 Z M7.99999984,14.626361 C8.78393575,15.0599458 9.16613725,15.9438848 8.93185135,16.7815065 C8.69756545,17.6191281 7.90521121,18.201572 7,18.201572 C6.09478878,18.201572 5.30243455,17.6191281 5.06814865,16.7815065 C4.83386274,15.9438848 5.21606424,15.0599458 6.00000015,14.626361 L6.00000015,4.78987456 C6.00000015,4.26079962 6.44771533,3.83189965 7,3.83189965 C7.55228466,3.83189965 7.99999984,4.26079962 7.99999984,4.78987456 L7.99999984,14.626361 Z" id="形状"></path>
                    </g>
                </g>
                <text font-family="PingFangSC-Medium, PingFang SC" font-size="16" font-weight="400" fill="#000000">
                    <tspan x="17" y="29">设备属性</tspan>
                </text>
            </g>
            <g id="虫害统计" transform="translate(810.000000, 131.000000)">
                <rect id="矩形" fill="#FFFFFF" x="0" y="0" width="758" height="337" rx="13"></rect>
                <text font-family="PingFangSC-Medium, PingFang SC" font-size="16" font-weight="400" fill="#000000">
                    <tspan x="20" y="34">虫害统计</tspan>
                </text>
            </g>
            <g id="设备设置" transform="translate(810.000000, 482.000000)">
                <rect id="矩形" fill="#FFFFFF" x="0" y="0" width="758" height="296" rx="13"></rect>
                <text font-family="PingFangSC-Medium, PingFang SC" font-size="16" font-weight="400" fill="#000000">
                    <tspan x="20" y="30">设备设置</tspan>
                </text>
                <g id="设备设置按钮" transform="translate(662.000000, 16.000000)">
                    <path d="M9.5,0 L39,0 L39,0 L39,19 L9.5,19 C4.25329488,19 6.42536064e-16,14.7467051 0,9.5 C-6.42536064e-16,4.25329488 4.25329488,9.63804095e-16 9.5,0 Z" id="矩形" fill="#D8D8D8"></path>
                    <path d="M48.5,0 L78,0 L78,0 L78,19 L48.5,19 C43.2532949,19 39,14.7467051 39,9.5 C39,4.25329488 43.2532949,9.63804095e-16 48.5,0 Z" id="矩形" fill="#56B250" transform="translate(58.500000, 9.500000) rotate(180.000000) translate(-58.500000, -9.500000) "></path>
                    <text id="保存" font-family="PingFangSC-Regular, PingFang SC" font-size="9" font-weight="normal" fill="#FFFFFF">
                        <tspan x="50" y="13">保存</tspan>
                    </text>
                    <text id="读取" font-family="PingFangSC-Regular, PingFang SC" font-size="9" font-weight="normal" fill="#FFFFFF">
                        <tspan x="11" y="13">读取</tspan>
                    </text>
                </g>
            </g>
            <g id="虫害图片" transform="translate(0.000000, 131.000000)">
                <rect id="矩形" fill="#FFFFFF" x="0" y="0" width="791" height="647" rx="13"></rect>
                <text font-family="PingFangSC-Medium, PingFang SC" font-size="16" font-weight="400" fill="#000000">
                    <tspan x="18" y="34">虫害图片</tspan>
                </text>
            </g>
        </g>
    </g>
</svg>