<?xml version="1.0" standalone="no"?><!DOCTYPE svg PUBLIC "-//W3C//DTD SVG 1.1//EN" "http://www.w3.org/Graphics/SVG/1.1/DTD/svg11.dtd"><svg t="1692760902649" class="icon" viewBox="0 0 1024 1024" version="1.1" xmlns="http://www.w3.org/2000/svg" p-id="11193" xmlns:xlink="http://www.w3.org/1999/xlink" width="200" height="200"><path d="M833.504 800h-384a32 32 0 0 1 0-64h384a32 32 0 1 1 0 64z m-512 0h-128a32 32 0 0 1 0-64h128a32 32 0 0 1 0 64z m512-512h-128a32 32 0 0 1 0-64h128a32 32 0 1 1 0 64z m-256 0h-384a32 32 0 1 1 0-64h384a32 32 0 1 1 0 64z m256 128h-384a32 32 0 1 1 0-64h384a32 32 0 1 1 0 64z m0 128h-256a32 32 0 0 1 0-64h256a32 32 0 1 1 0 64z m0 128h-256a32 32 0 0 1 0-64h256a32 32 0 1 1 0 64z m-544-231.04l41.28 50.56a71.36 71.36 0 0 1 4.48 96 67.2 67.2 0 0 1-93.76 0 69.76 69.76 0 0 1 4.8-96l13.44-16.96 27.84-34.88 1.92 1.28z m-1.92-89.92a18.88 18.88 0 0 0-14.4 6.4c-21.44 24.32-53.12 64-76.8 94.08-46.4 57.92-50.56 131.84 0 181.76a131.2 131.2 0 0 0 183.68 0 133.44 133.44 0 0 0 0-181.76c-24.96-32-57.28-70.4-78.4-94.08a18.88 18.88 0 0 0-12.16-5.44l-1.92-0.96z"  p-id="11194"></path></svg>
