<?xml version="1.0" standalone="no"?><!DOCTYPE svg PUBLIC "-//W3C//DTD SVG 1.1//EN" "http://www.w3.org/Graphics/SVG/1.1/DTD/svg11.dtd"><svg t="1692760843478" class="icon" viewBox="0 0 1024 1024" version="1.1" xmlns="http://www.w3.org/2000/svg" p-id="10885" xmlns:xlink="http://www.w3.org/1999/xlink" width="200" height="200"><path d="M528.416 450.144l113.184-113.184a32 32 0 1 1 45.12 45.12l-112.96 112.96A64.064 64.064 0 0 1 512 576a64 64 0 1 1 16.416-125.856zM800 704h-64a32 32 0 0 1 0-64h64a32 32 0 0 1 0 64z m-192 0H224a32 32 0 0 1 0-64h384a32 32 0 0 1 0 64z m192 128H384a32 32 0 0 1 0-64h416a32 32 0 0 1 0 64zM288 832H224a32 32 0 0 1 0-64h64a32 32 0 0 1 0 64z m66.752-522.048l10.368 10.368a32 32 0 0 1-22.4 54.4 32 32 0 0 1-22.72-9.28l-10.304-10.304A254.72 254.72 0 0 0 257.984 480H288a32 32 0 1 1 0 64H224a32 32 0 0 1-32-32c0-176.736 143.264-320 320-320s320 143.264 320 320a32 32 0 0 1-32 32h-64a32 32 0 0 1 0-64h30.016A256.128 256.128 0 0 0 544 257.984V288a32 32 0 0 1-64 0v-30.016a254.72 254.72 0 0 0-125.248 51.968z"  p-id="10886"></path></svg>
