<?xml version="1.0" standalone="no"?><!DOCTYPE svg PUBLIC "-//W3C//DTD SVG 1.1//EN" "http://www.w3.org/Graphics/SVG/1.1/DTD/svg11.dtd"><svg t="1691657220338" class="icon" viewBox="0 0 1024 1024" version="1.1" xmlns="http://www.w3.org/2000/svg" p-id="10723" xmlns:xlink="http://www.w3.org/1999/xlink" width="200" height="200"><path d="M512 313.6l41.6 51.2c25.6 25.6 28.8 67.2 3.2 96-25.6 25.6-67.2 25.6-92.8 0-25.6-28.8-22.4-70.4 6.4-96l12.8-16 28.8-35.2zM512 224c-6.4 0-9.6 3.2-16 6.4-22.4 25.6-54.4 64-76.8 92.8-48 57.6-51.2 131.2 0 182.4 51.2 51.2 131.2 51.2 182.4 0 48-51.2 48-131.2 0-182.4-25.6-32-57.6-70.4-80-92.8 0-3.2-3.2-6.4-9.6-6.4z m256 0c19.2 0 32 12.8 32 32v512c0 19.2-12.8 32-32 32H256c-19.2 0-32-12.8-32-32V256c0-19.2 12.8-32 32-32s32 12.8 32 32v480h448V256c0-19.2 12.8-32 32-32z m-128 384c19.2 0 32 12.8 32 32s-12.8 32-32 32h-256c-19.2 0-32-12.8-32-32s12.8-32 32-32h256z"  p-id="10724"></path></svg>
